<svg width="50" height="50" viewBox="0 0 50 50" fill="none" xmlns="http://www.w3.org/2000/svg">
<path d="M50 25.3194C50 37.1062 42.5849 47.0119 31.6801 49.8333C31.679 49.8323 31.6779 49.8314 31.6769 49.8304C31.2949 49.4943 31.3767 47.7603 31.4758 45.6589C31.6151 42.7065 31.7886 39.0288 30.7582 37.4831C30.5229 37.1302 30.252 36.774 29.9591 36.4217C39.0411 35.6084 41.2681 30.0605 41.2681 24.5845C41.4004 21.4627 40.3898 19.017 38.6803 17.1652C39.3923 15.8864 39.8097 11.5265 38.2692 10.6569C36.7157 9.78012 32.6758 12.2923 31.9355 13.3194C29.8532 12.7317 27.6137 12.4576 25.4297 12.4576C23.2039 12.4576 20.869 12.7787 18.684 13.4225C18.1665 12.4741 13.8928 9.74913 12.2844 10.6569C10.7406 11.5283 11.1631 15.9048 11.8779 17.1733C10.0368 18.9919 8.94852 21.3386 9.15028 24.217C9.80742 33.5924 14.6581 35.7882 20.4521 36.2998C20.1693 36.6803 19.9127 37.0761 19.697 37.4831C19.3613 38.1164 19.1649 38.9604 19.0574 39.9131C18.3541 40.1024 17.3107 40.3284 16.2794 40.3494C14.4788 40.3862 13.1926 39.394 12.6413 38.6957C12.605 38.6498 12.563 38.5961 12.5158 38.536C11.8471 37.6828 10.1506 35.5185 9.22378 35.2782C8.23158 35.0209 6.50442 35.2782 6.46767 35.7192C6.45078 35.9218 6.93826 36.2641 7.51293 36.6676C8.18887 37.1423 8.98543 37.7016 9.22378 38.218C9.66476 39.1735 10.5467 40.7536 11.0979 41.4519C11.6491 42.1501 13.6336 43.6567 16.2794 43.7302C17.5089 43.7644 18.3812 43.6557 18.9629 43.5296C18.9831 44.2316 19.016 44.9292 19.0474 45.5934C19.1385 47.5229 19.2163 49.1703 18.9277 49.8252C8.03867 46.993 0 37.095 0 25.3194C0 11.3359 11.3359 0 25.3194 0C39.303 0 50 11.3359 50 25.3194Z" fill="black"/>
<path d="M18.8511 40.8446C18.8637 41.0767 18.7448 41.2026 18.4805 41.3069C18.2162 41.4112 17.9671 41.4075 17.9075 41.2565C17.8479 41.1054 18.0003 40.8643 18.2647 40.76C18.529 40.6557 18.8044 40.626 18.8511 40.8446Z" fill="black"/>
<path d="M16.9867 41.2868C16.9273 41.5578 16.7504 41.6648 16.4131 41.7007C16.0758 41.7365 15.7904 41.6529 15.7699 41.4602C15.7494 41.2675 16.0016 41.0385 16.3389 41.0027C16.6762 40.9669 17.0025 41.0204 16.9867 41.2868Z" fill="black"/>
<path d="M14.8034 41.33C14.6467 41.5017 14.4735 41.5051 14.2139 41.3897C13.9543 41.2742 13.7823 41.094 13.8483 40.9456C13.9142 40.7973 14.1931 40.737 14.4528 40.8524C14.7124 40.9678 14.9266 41.1435 14.8034 41.33Z" fill="black"/>
<path d="M13.0054 40.3422C12.8249 40.4886 12.6531 40.4662 12.4136 40.3134C12.1741 40.1605 12.0309 39.9567 12.1182 39.8198C12.2056 39.6829 12.4903 39.6648 12.7298 39.8177C12.9694 39.9705 13.155 40.1761 13.0054 40.3422Z" fill="black"/>
<path d="M11.6668 38.9048C11.4862 38.9833 11.351 38.9261 11.1901 38.747C11.0292 38.5679 10.9585 38.369 11.0608 38.2771C11.1632 38.1851 11.3998 38.2349 11.5607 38.414C11.7216 38.5931 11.8266 38.8031 11.6668 38.9048Z" fill="black"/>
<path d="M10.6819 37.5635C10.5178 37.6349 10.3951 37.5829 10.2488 37.4202C10.1026 37.2575 10.0384 37.0768 10.1314 36.9932C10.2244 36.9097 10.4393 36.9549 10.5855 37.1176C10.7317 37.2804 10.8271 37.4711 10.6819 37.5635Z" fill="black"/>
<path d="M9.45106 36.2787C9.34144 36.3699 9.2359 36.3575 9.08777 36.2656C8.93963 36.1737 8.85023 36.0497 8.90274 35.9651C8.95525 35.8804 9.12979 35.8671 9.27792 35.959C9.42606 36.0509 9.54153 36.1756 9.45106 36.2787Z" fill="black"/>
</svg>
