<svg width="51" height="51" viewBox="0 0 51 51" fill="none" xmlns="http://www.w3.org/2000/svg">
<path fill-rule="evenodd" clip-rule="evenodd" d="M11.5726 0.146517C8.7976 0.622212 6.2746 1.96855 4.1052 4.13137C2.3798 5.85147 1.3238 7.54059 0.5448 9.82633L0 11.4253V25.5163V39.6073L0.5448 41.2063C1.3226 43.4888 2.3784 45.1793 4.1014 46.9012C5.8244 48.6231 7.516 49.6782 9.8 50.4555L11.4 51H25.5H39.6L41.2 50.4555C43.484 49.6782 45.1756 48.6231 46.8986 46.9012C48.6216 45.1793 49.6774 43.4888 50.4552 41.2063L51 39.6073V25.5163V11.4253L50.4552 9.82633C49.6774 7.54379 48.6216 5.85327 46.8986 4.13137C45.1742 2.40827 43.4816 1.35295 41.2 0.57864L39.6 0.0357874L26.1 0.00300836C18.675 -0.0149801 12.1376 0.0495786 11.5726 0.146517ZM39.7434 4.92646C41.1376 5.35679 43.0852 6.53123 43.9298 7.45065C44.8228 8.42282 45.6948 9.96324 46.1072 11.2964C46.4804 12.5036 46.5 13.21 46.5 25.5163C46.5 40.1256 46.5332 39.7716 44.9302 42.22C43.6534 44.17 41.9948 45.4106 39.729 46.1103C38.521 46.4833 37.8142 46.5029 25.5 46.5029C13.1858 46.5029 12.479 46.4833 11.271 46.1103C9.0052 45.4106 7.3466 44.17 6.0698 42.22C4.4668 39.7716 4.5 40.1256 4.5 25.5163C4.5 13.1634 4.5182 12.5074 4.897 11.282C5.8492 8.20097 8.1348 5.91403 11.2596 4.91567C12.3134 4.57888 13.389 4.5503 25.429 4.54051C37.8774 4.53011 38.5152 4.5473 39.7434 4.92646ZM37.6 8.96928C36.696 9.48794 35.9 10.8301 35.9 11.836C35.9 13.6351 37.715 15.2353 39.5648 15.0668C42.6366 14.787 43.5936 10.939 41.0582 9.06242C40.2206 8.44221 38.595 8.39864 37.6 8.96928ZM22.7144 12.6351C15.743 14.146 11.128 21.2534 12.6022 28.2088C14.095 35.2515 21.1866 39.8893 28.1942 38.4059C35.2414 36.914 39.8822 29.8269 38.3978 22.8238C36.9004 15.7597 29.7452 11.1113 22.7144 12.6351ZM28.0322 17.2862C35.0744 19.483 36.2882 28.8987 30.0388 32.8516C27.4224 34.5065 23.5776 34.5065 20.9612 32.8516C15.549 29.4284 15.549 21.606 20.9612 18.1806C22.91 16.9472 25.7816 16.584 28.0322 17.2862Z" fill="black"/>
</svg>
