<svg width="50" height="42" viewBox="0 0 50 42" fill="none" xmlns="http://www.w3.org/2000/svg">
<path fill-rule="evenodd" clip-rule="evenodd" d="M44.8427 10.2534C44.8427 10.6107 44.8244 10.9638 44.7887 11.3116C44.8249 11.8698 44.8427 12.4637 44.8427 13.0956C44.8427 14.2931 44.718 15.4581 44.4823 16.5752C42.2976 31.1669 29.9805 41.6375 14.9481 41.2594C9.45096 41.1212 4.34248 39.4695 0 36.7068C0.102199 36.7107 0.204574 36.7139 0.30711 36.7165C5.69093 36.8519 10.7046 35.2006 14.78 32.3029C10.2167 32.1703 6.38552 29.1176 5.09013 24.9483C5.86899 25.1028 6.67431 25.1839 7.49856 25.1839C8.41103 25.1839 9.3003 25.0846 10.1562 24.8961C9.82033 24.841 9.48571 24.7693 9.15345 24.6802C4.53756 23.4434 1.79711 19.257 1.76189 14.6843C2.49841 15.0511 3.28233 15.3501 4.10786 15.5713C4.79204 15.7546 5.47818 15.8773 6.16059 15.9428C2.36225 12.8731 0.685688 8.06332 2.56968 3.23798C2.75071 2.77433 2.96229 2.33076 3.20164 1.90834C5.59753 5.4645 10.0531 8.73732 15.6219 10.9116C18.7329 12.1262 21.8389 12.8068 24.705 12.9899C24.4643 12.1188 24.3358 11.2011 24.3358 10.2534C24.3358 4.59063 28.9264 0 34.5892 0C37.5972 0 40.3027 1.29526 42.1783 3.35845C44.6549 3.07689 46.9399 2.18375 48.8705 0.838011C48.0297 3.17094 46.4999 5.17473 44.5266 6.60381C46.4748 6.44447 48.3303 5.90021 50.0002 5.04017C48.8418 7.27033 47.0268 9.07151 44.8426 10.2243L44.8427 10.2534Z" fill="black"/>
</svg>
